<svg xmlns="http://www.w3.org/2000/svg" width="488.61" height="668.716" viewBox="0 0 488.61 668.716"><path d="M184.436,664.419c127.142-34.735,171.1-151.661,175.728-166.875.471-1.547,1.026-3.072,1.642-4.568C415.19,363.519,287.443,213.3,287.443,213.3S188.705,91.185,180.167,82.12s0-16,0-16L231.4,0S372.76,173.314,372.321,172.792C532.4,366.87,479.044,476.717,479.044,477.786c-51.109,166.37-186.253,189.627-254.986,189.627C203.791,667.413,189.3,665.391,184.436,664.419ZM.289,417C1.357,276.223,150.8,124.783,150.8,124.783,261.807,237.83,297.033,362.608,297.033,361.541,344,553.509,150.8,644.161,150.8,644.161-13.588,557.776.289,419.132.289,417Z" transform="translate(0.51 0.803)" fill="#fff" stroke="rgba(0,0,0,0)" stroke-miterlimit="10" stroke-width="1"/></svg>