<svg xmlns="http://www.w3.org/2000/svg" xmlns:xlink="http://www.w3.org/1999/xlink" width="21.841" height="29.693" viewBox="0 0 21.841 29.693"><defs><linearGradient id="a" x1="0.5" x2="0.5" y2="1" gradientUnits="objectBoundingBox"><stop offset="0" stop-color="#43e97b"/><stop offset="1" stop-color="#38f9d7"/></linearGradient></defs><path d="M7.838,28.262a11.346,11.346,0,0,0,7.468-7.1,1.93,1.93,0,0,1,.07-.194c2.268-5.506-3.161-11.9-3.161-11.9s-4.2-5.194-4.558-5.58a.44.44,0,0,1,0-.68L9.834,0l5.988,7.349c6.8,8.256,4.536,12.928,4.536,12.973A10.765,10.765,0,0,1,9.522,28.389,9.663,9.663,0,0,1,7.838,28.262ZM.013,17.737c.045-5.988,6.4-12.43,6.4-12.43a26.654,26.654,0,0,1,6.215,10.071c2,8.166-6.215,12.021-6.215,12.021C-.578,23.726.013,17.828.013,17.737Z" transform="translate(0.511 0.804)" stroke="rgba(0,0,0,0)" stroke-miterlimit="10" stroke-width="1" fill="url(#a)"/></svg>