<svg xmlns="http://www.w3.org/2000/svg" xmlns:xlink="http://www.w3.org/1999/xlink" width="256.255" height="47.604" viewBox="0 0 256.255 47.604"><defs><clipPath id="a"><rect width="256.255" height="47.605" fill="none"/></clipPath></defs><g clip-path="url(#a)"><path d="M21.069,39.453A44.481,44.481,0,0,0,10.7,22.644S.1,33.4.02,43.39c0,.151-.984,9.994,10.676,16.127,0,0,13.7-6.436,10.373-20.065" transform="translate(0 -13.563)" fill="#00ea2c"/><path d="M45.094,12.819,35.1.553,31.466,5.247a.736.736,0,0,0,0,1.136c.606.644,7.609,9.313,7.609,9.313s9.062,10.665,5.275,19.856c-.044.106-.083.215-.116.324-.328,1.08-3.446,9.381-12.464,11.847,1.514.3,16.2,2.044,20.9-13.25,0-.075,3.786-7.874-7.571-21.654" transform="translate(-18.686 -0.331)" fill="#fff"/><path d="M120.714,5.56a13.069,13.069,0,0,0-9.777-4.052H99.447V29.729h11.49a13.069,13.069,0,0,0,9.777-4.052,13.879,13.879,0,0,0,3.931-10.059A13.88,13.88,0,0,0,120.714,5.56M115.735,20.8a6.314,6.314,0,0,1-4.8,1.955h-4.072V8.483h4.072a6.317,6.317,0,0,1,4.8,1.955,7.222,7.222,0,0,1,1.854,5.181,7.218,7.218,0,0,1-1.854,5.18" transform="translate(-59.566 -0.903)" fill="#fff"/><path d="M190.78,15.92a8.778,8.778,0,0,0,1.29-4.656,9.211,9.211,0,0,0-2.923-6.995,10.136,10.136,0,0,0-7.237-2.762H170.622V29.728h7.216V20.617h2.581l4.919,9.112h7.741l-5.806-10.442a9.486,9.486,0,0,0,3.507-3.367m-6.773-2.278a2.751,2.751,0,0,1-2.177.847h-3.991V8.159h3.991a2.877,2.877,0,0,1,2.177.887,3.191,3.191,0,0,1,.847,2.3,3.19,3.19,0,0,1-.847,2.3" transform="translate(-102.198 -0.903)" fill="#fff"/><path d="M246.865,19.77q0,3.548-3.951,3.548t-3.951-3.548V1.507h-7.217V20.455a9.014,9.014,0,0,0,3.125,7.176,13.326,13.326,0,0,0,16.086,0,9.016,9.016,0,0,0,3.124-7.176V1.507h-7.216Z" transform="translate(-138.81 -0.903)" fill="#fff"/><path d="M305.013,14.57l6.813,11.288h.725l6.854-11.329v15.2h7.176V1.507h-7.176l-7.216,12.054L305.013,1.507H297.8V29.729h7.216Z" transform="translate(-178.372 -0.903)" fill="#fff"/><path d="M392.816,0a14.354,14.354,0,0,0-10.5,4.253,14.153,14.153,0,0,0-4.294,10.462,14.151,14.151,0,0,0,4.294,10.462,15.093,15.093,0,0,0,21,0,14.152,14.152,0,0,0,4.294-10.462,14.155,14.155,0,0,0-4.294-10.462A14.356,14.356,0,0,0,392.816,0m5.442,20.218a7.622,7.622,0,0,1-13.063-5.5,7.622,7.622,0,1,1,15.24,0,7.414,7.414,0,0,1-2.177,5.5" transform="translate(-226.424)" fill="#fff"/><path d="M475.716,15.7,465.758,1.508h-5.6V29.729h7.216V15.538l9.958,14.191h5.563V1.508h-7.176Z" transform="translate(-275.621 -0.903)" fill="#fff"/><path d="M539.5,1.508h-11.49V29.729H539.5a13.069,13.069,0,0,0,9.777-4.052,13.878,13.878,0,0,0,3.931-10.059A13.878,13.878,0,0,0,549.279,5.56,13.069,13.069,0,0,0,539.5,1.508M544.3,20.8a6.313,6.313,0,0,1-4.8,1.955H535.43V8.483H539.5a6.316,6.316,0,0,1,4.8,1.955,7.222,7.222,0,0,1,1.855,5.181A7.218,7.218,0,0,1,544.3,20.8" transform="translate(-316.266 -0.903)" fill="#fff"/><path d="M611.409,31.081a4.945,4.945,0,0,0-2.543-1.934l-2.915-.936-2.455-.788q-1.055-.338-1.055-.853,0-.881,1.492-.881a2.74,2.74,0,0,1,2.5,1.733l5.644-2.54q-2.339-4.676-8.305-4.677a9.389,9.389,0,0,0-5.756,1.774,5.862,5.862,0,0,0-2.391,5,5.4,5.4,0,0,0,1.008,3.326,5.158,5.158,0,0,0,2.494,1.86l2.878.987,2.422.83q1.029.353,1.029.911,0,1.076-1.814,1.076a3.042,3.042,0,0,1-3.145-2.218L594.652,36.7q2.258,4.8,9.031,4.8a11.224,11.224,0,0,0,6.16-1.653,5.64,5.64,0,0,0,2.594-5.12,6.131,6.131,0,0,0-1.028-3.639" transform="translate(-356.181 -12.103)" fill="#fff"/><path d="M105.018,87.092a2.957,2.957,0,0,1,1.453.357,2.486,2.486,0,0,1,1,.989l1.6-.928a4.387,4.387,0,0,0-1.688-1.621,4.8,4.8,0,0,0-2.36-.6,4.721,4.721,0,0,0-3.511,1.405,5.081,5.081,0,0,0,0,6.975,4.709,4.709,0,0,0,3.511,1.412,4.784,4.784,0,0,0,2.367-.6,4.395,4.395,0,0,0,1.682-1.621l-1.6-.928a2.41,2.41,0,0,1-.989.975,2.992,2.992,0,0,1-1.459.357,2.952,2.952,0,0,1-2.212-.861,3.367,3.367,0,0,1,0-4.453,2.954,2.954,0,0,1,2.212-.861" transform="translate(-59.971 -51.087)" fill="#00ea2c"/><path d="M140.55,85.759h-1.856v9.415h5.448V93.4H140.55Z" transform="translate(-83.074 -51.367)" fill="#00ea2c"/><path d="M170.165,91.287h3.564V89.539h-3.564v-2h3.9V85.759h-5.757v9.415h5.824V93.4h-3.968Z" transform="translate(-100.813 -51.367)" fill="#00ea2c"/><path d="M201.055,85.759l-3.3,9.415h2l.565-1.695H204.2l.6,1.695h1.882l-3.322-9.415Zm-.122,5.985,1.291-3.847,1.359,3.847Z" transform="translate(-118.453 -51.367)" fill="#00ea2c"/><path d="M241.139,91.494,237.1,85.758h-1.411v9.416h1.856V89.417l4.035,5.757H243V85.758h-1.856Z" transform="translate(-141.173 -51.367)" fill="#00ea2c"/><rect width="1.856" height="9.415" transform="translate(108.951 34.392)" fill="#00ea2c"/><path d="M299.533,91.494,295.5,85.758h-1.411v9.416h1.856V89.417l4.035,5.757h1.412V85.758h-1.856Z" transform="translate(-176.15 -51.367)" fill="#00ea2c"/><path d="M333.951,91.476H336.8a2.371,2.371,0,0,1-.962,1.311,3.112,3.112,0,0,1-1.782.478,3.182,3.182,0,0,1-2.334-.867,2.956,2.956,0,0,1-.881-2.2,3.044,3.044,0,0,1,.867-2.226,2.973,2.973,0,0,1,2.212-.881,3.157,3.157,0,0,1,1.513.363,2.5,2.5,0,0,1,1.016.942l1.587-.914a4.435,4.435,0,0,0-1.695-1.594,4.918,4.918,0,0,0-2.408-.6A4.858,4.858,0,0,0,329,90.2a4.688,4.688,0,0,0,1.432,3.463,4.921,4.921,0,0,0,3.612,1.419,4.6,4.6,0,0,0,3.336-1.251,4.347,4.347,0,0,0,1.291-3.269v-.726h-4.721Z" transform="translate(-197.063 -51.086)" fill="#00ea2c"/></g></svg>