<svg xmlns="http://www.w3.org/2000/svg" width="193.367" height="142.593" viewBox="0 0 193.367 142.593"><path d="M289.636,99.933a86.028,86.028,0,0,0-20.06-32.507s-20.5,20.792-20.646,40.121c0,.293-1.9,19.328,20.646,31.189,0,0,26.5-12.446,20.06-38.8" transform="translate(-185.649 -50.294)" fill="#00ea2c"/><path d="M370.984,23.721C371.248,24.041,351.656,0,351.656,0l-7.028,9.078a1.423,1.423,0,0,0,0,2.2c1.171,1.245,14.716,18.01,14.716,18.01s17.524,20.625,10.2,38.4c-.085.205-.161.415-.225.627-.635,2.089-6.665,18.142-24.106,22.912,2.929.586,31.335,3.953,40.414-25.624,0-.147,7.321-15.229-14.643-41.878" transform="translate(-256.672)" fill="#685ec8"/><path d="M203.075,528.357a2.643,2.643,0,0,1,1.3.319,2.223,2.223,0,0,1,.89.883l1.43-.829a3.918,3.918,0,0,0-1.509-1.449,4.29,4.29,0,0,0-2.109-.535A4.219,4.219,0,0,0,199.938,528a4.541,4.541,0,0,0,0,6.233,4.208,4.208,0,0,0,3.137,1.262,4.278,4.278,0,0,0,2.116-.535,3.924,3.924,0,0,0,1.5-1.448l-1.43-.829a2.152,2.152,0,0,1-.884.871,2.673,2.673,0,0,1-1.3.319,2.639,2.639,0,0,1-1.977-.769,3.009,3.009,0,0,1,0-3.979,2.64,2.64,0,0,1,1.977-.769" transform="translate(-148.212 -392.904)" fill="#00ea2c"/><path d="M254.762,527.408H253.1v8.414h4.868v-1.587h-3.209Z" transform="translate(-188.791 -393.398)" fill="#00ea2c"/><path d="M296.533,532.349h3.185v-1.563h-3.185V529h3.486v-1.587h-5.145v8.414h5.205v-1.587h-3.546Z" transform="translate(-219.949 -393.398)" fill="#00ea2c"/><path d="M339.357,527.409l-2.945,8.414H338.2l.5-1.515h3.456l.535,1.515h1.682l-2.969-8.414Zm-.109,5.349,1.154-3.438,1.215,3.438Z" transform="translate(-250.932 -393.398)" fill="#00ea2c"/><path d="M394.783,532.534l-3.607-5.126h-1.261v8.414h1.659v-5.145l3.606,5.145h1.262v-8.414h-1.659Z" transform="translate(-290.84 -393.398)" fill="#00ea2c"/><rect width="1.659" height="8.414" transform="translate(111.972 134.011)" fill="#00ea2c"/><path d="M477.144,532.534l-3.607-5.126h-1.261v8.414h1.659v-5.145l3.606,5.145H478.8v-8.414h-1.659Z" transform="translate(-352.274 -393.398)" fill="#00ea2c"/><path d="M525.945,532.275h2.548a2.12,2.12,0,0,1-.86,1.172,2.781,2.781,0,0,1-1.592.427,2.844,2.844,0,0,1-2.086-.775,2.641,2.641,0,0,1-.787-1.965,2.72,2.72,0,0,1,.775-1.99,2.657,2.657,0,0,1,1.977-.787,2.821,2.821,0,0,1,1.352.324,2.233,2.233,0,0,1,.908.842l1.418-.817a3.965,3.965,0,0,0-1.514-1.424,4.4,4.4,0,0,0-2.152-.535,4.341,4.341,0,0,0-4.411,4.387,4.189,4.189,0,0,0,1.28,3.1,4.4,4.4,0,0,0,3.227,1.268,4.107,4.107,0,0,0,2.981-1.118,3.885,3.885,0,0,0,1.154-2.921v-.649h-4.219Z" transform="translate(-389.007 -392.904)" fill="#00ea2c"/><path d="M19.006,404.363a11.68,11.68,0,0,0-8.737-3.621H0v25.22H10.268a11.681,11.681,0,0,0,8.737-3.621,13.258,13.258,0,0,0,0-17.979m-4.45,13.619a5.643,5.643,0,0,1-4.288,1.748H6.63V406.975h3.639a5.645,5.645,0,0,1,4.288,1.747,7.295,7.295,0,0,1,0,9.259" transform="translate(0 -298.917)" fill="#685ec8"/><path d="M118.405,413.621a7.843,7.843,0,0,0,1.153-4.161,8.232,8.232,0,0,0-2.612-6.251,9.058,9.058,0,0,0-6.467-2.468H100.391v25.22h6.449v-8.143h2.306l4.4,8.143h6.918l-5.188-9.332a8.476,8.476,0,0,0,3.135-3.008m-6.053-2.036a2.459,2.459,0,0,1-1.946.757H106.84v-5.657h3.567a2.573,2.573,0,0,1,1.946.793,3.165,3.165,0,0,1,0,4.107" transform="translate(-74.882 -298.916)" fill="#685ec8"/><path d="M200.114,417.062q0,3.171-3.531,3.171t-3.531-3.171V400.741H186.6v16.933a8.055,8.055,0,0,0,2.792,6.413,11.908,11.908,0,0,0,14.376,0,8.057,8.057,0,0,0,2.792-6.413V400.741h-6.449Z" transform="translate(-139.189 -298.916)" fill="#685ec8"/><path d="M286.211,412.415,292.3,422.5h.649l6.125-10.124v13.583h6.413v-25.22h-6.413l-6.449,10.772-6.413-10.772h-6.449v25.22h6.449Z" transform="translate(-208.677 -298.916)" fill="#685ec8"/><path d="M406.136,398.614a12.826,12.826,0,0,0-9.385,3.8,13.308,13.308,0,0,0,0,18.7,13.487,13.487,0,0,0,18.771,0,13.309,13.309,0,0,0,0-18.7,12.829,12.829,0,0,0-9.386-3.8M411,416.683a7.189,7.189,0,1,1,1.946-4.918A6.631,6.631,0,0,1,411,416.683" transform="translate(-293.077 -297.329)" fill="#685ec8"/><path d="M522.667,413.424l-8.9-12.682H508.76v25.22h6.449V413.279l8.9,12.682h4.972v-25.22h-6.413Z" transform="translate(-379.488 -298.916)" fill="#685ec8"/><path d="M614.737,400.742H604.469v25.22h10.268a11.68,11.68,0,0,0,8.737-3.621,13.258,13.258,0,0,0,0-17.979,11.679,11.679,0,0,0-8.737-3.621m4.287,17.24a5.642,5.642,0,0,1-4.287,1.748H611.1V406.975h3.639a5.644,5.644,0,0,1,4.287,1.747,7.295,7.295,0,0,1,0,9.259" transform="translate(-450.878 -298.917)" fill="#685ec8"/><path d="M713.435,436.833a4.418,4.418,0,0,0-2.273-1.728l-2.6-.837-2.194-.7q-.943-.3-.943-.762,0-.787,1.333-.787a2.448,2.448,0,0,1,2.234,1.549l5.044-2.27q-2.09-4.179-7.422-4.179a8.39,8.39,0,0,0-5.144,1.586,5.238,5.238,0,0,0-2.137,4.467,4.829,4.829,0,0,0,.9,2.972,4.608,4.608,0,0,0,2.229,1.663l2.572.882,2.164.741q.92.316.92.814,0,.962-1.621.962a2.718,2.718,0,0,1-2.81-1.982l-5.224,2.63q2.017,4.288,8.071,4.287a10.031,10.031,0,0,0,5.5-1.477,5.04,5.04,0,0,0,2.319-4.576,5.48,5.48,0,0,0-.919-3.252" transform="translate(-520.987 -318.588)" fill="#685ec8"/><rect width="193.367" height="142.593" fill="none"/></svg>