<svg xmlns="http://www.w3.org/2000/svg" xmlns:xlink="http://www.w3.org/1999/xlink" width="68.383" height="87.026" viewBox="0 0 68.383 87.026"><defs><filter id="a" x="0" y="12.906" width="49.454" height="71.716" filterUnits="userSpaceOnUse"><feOffset dy="3" input="SourceAlpha"/><feGaussianBlur stdDeviation="3" result="b"/><feFlood flood-opacity="0.161"/><feComposite operator="in" in2="b"/><feComposite in="SourceGraphic"/></filter><filter id="c" x="18.225" y="0" width="50.159" height="87.026" filterUnits="userSpaceOnUse"><feOffset dy="3" input="SourceAlpha"/><feGaussianBlur stdDeviation="3" result="d"/><feFlood flood-opacity="0.161"/><feComposite operator="in" in2="d"/><feComposite in="SourceGraphic"/></filter></defs><g transform="translate(9 6)"><g transform="matrix(1, 0, 0, 1, -9, -6)" filter="url(#a)"><path d="M279.583,91.912a64.8,64.8,0,0,0-15.111-24.486S249.03,83.088,248.92,97.648c0,.221-1.434,14.56,15.552,23.494,0,0,19.964-9.375,15.111-29.229" transform="translate(-239.89 -48.52)" fill="#00ea2c"/></g><g transform="matrix(1, 0, 0, 1, -9, -6)" filter="url(#c)"><path d="M364.353,17.869c.2.241-14.56-17.869-14.56-17.869L344.5,6.839a1.072,1.072,0,0,0,0,1.654c.882.937,11.085,13.567,11.085,13.567s13.2,15.537,7.684,28.925c-.064.155-.121.312-.17.473-.479,1.573-5.02,13.666-18.158,17.259,2.206.441,23.6,2.978,30.443-19.3,0-.11,5.515-11.471-11.03-31.546" transform="translate(-316.88 6)" fill="#fff"/></g></g></svg>