<svg xmlns="http://www.w3.org/2000/svg" width="379.604" height="518.413" viewBox="0 0 379.604 518.413"><path d="M143.2,515.092c98.719-26.929,132.846-117.576,136.443-129.37.365-1.2.8-2.382,1.275-3.541,41.45-100.362-57.739-216.823-57.739-216.823S146.519,70.691,139.89,63.664s0-12.4,0-12.4L179.671,0S289.428,134.362,289.088,133.958C413.379,284.416,371.952,369.576,371.952,370.4,332.269,499.383,227.337,517.413,173.969,517.413,158.233,517.413,146.98,515.845,143.2,515.092ZM.225,323.279C1.054,214.142,117.086,96.738,117.086,96.738,203.279,184.378,230.63,281.112,230.63,280.285c36.467,148.823-113.545,219.1-113.545,219.1C-10.55,432.416.225,324.933.225,323.279Z" transform="translate(0.507 0.5)" fill="#685ec8" stroke="rgba(0,0,0,0)" stroke-miterlimit="10" stroke-width="1"/></svg>