<svg xmlns="http://www.w3.org/2000/svg" width="211" height="409" viewBox="0 0 211 409"><g transform="translate(-1544 28)" opacity="0.2"><circle cx="6.5" cy="6.5" r="6.5" transform="translate(1544 5)" fill="#9890e3"/><circle cx="6.5" cy="6.5" r="6.5" transform="translate(1577 5)" fill="#9890e3"/><circle cx="6.5" cy="6.5" r="6.5" transform="translate(1610 5)" fill="#9890e3"/><circle cx="6.5" cy="6.5" r="6.5" transform="translate(1643 5)" fill="#9890e3"/><circle cx="6.5" cy="6.5" r="6.5" transform="translate(1676 5)" fill="#9890e3"/><circle cx="6.5" cy="6.5" r="6.5" transform="translate(1709 5)" fill="#9890e3"/><circle cx="6.5" cy="6.5" r="6.5" transform="translate(1742 5)" fill="#9890e3"/><circle cx="6.5" cy="6.5" r="6.5" transform="translate(1544 38)" fill="#9890e3"/><circle cx="6.5" cy="6.5" r="6.5" transform="translate(1577 38)" fill="#9890e3"/><circle cx="6.5" cy="6.5" r="6.5" transform="translate(1610 38)" fill="#9890e3"/><circle cx="6.5" cy="6.5" r="6.5" transform="translate(1643 38)" fill="#9890e3"/><circle cx="6.5" cy="6.5" r="6.5" transform="translate(1676 38)" fill="#9890e3"/><circle cx="6.5" cy="6.5" r="6.5" transform="translate(1709 38)" fill="#9890e3"/><circle cx="6.5" cy="6.5" r="6.5" transform="translate(1742 38)" fill="#9890e3"/><circle cx="6.5" cy="6.5" r="6.5" transform="translate(1544 71)" fill="#9890e3"/><circle cx="6.5" cy="6.5" r="6.5" transform="translate(1577 71)" fill="#9890e3"/><circle cx="6.5" cy="6.5" r="6.5" transform="translate(1610 71)" fill="#9890e3"/><circle cx="6.5" cy="6.5" r="6.5" transform="translate(1643 71)" fill="#9890e3"/><circle cx="6.5" cy="6.5" r="6.5" transform="translate(1676 71)" fill="#9890e3"/><circle cx="6.5" cy="6.5" r="6.5" transform="translate(1709 71)" fill="#9890e3"/><circle cx="6.5" cy="6.5" r="6.5" transform="translate(1742 71)" fill="#9890e3"/><circle cx="6.5" cy="6.5" r="6.5" transform="translate(1544 104)" fill="#9890e3"/><circle cx="6.5" cy="6.5" r="6.5" transform="translate(1577 104)" fill="#9890e3"/><circle cx="6.5" cy="6.5" r="6.5" transform="translate(1610 104)" fill="#9890e3"/><circle cx="6.5" cy="6.5" r="6.5" transform="translate(1643 104)" fill="#9890e3"/><circle cx="6.5" cy="6.5" r="6.5" transform="translate(1676 104)" fill="#9890e3"/><circle cx="6.5" cy="6.5" r="6.5" transform="translate(1709 104)" fill="#9890e3"/><circle cx="6.5" cy="6.5" r="6.5" transform="translate(1742 104)" fill="#9890e3"/><circle cx="6.5" cy="6.5" r="6.5" transform="translate(1544 137)" fill="#9890e3"/><circle cx="6.5" cy="6.5" r="6.5" transform="translate(1577 137)" fill="#9890e3"/><circle cx="6.5" cy="6.5" r="6.5" transform="translate(1610 137)" fill="#9890e3"/><circle cx="6.5" cy="6.5" r="6.5" transform="translate(1643 137)" fill="#9890e3"/><circle cx="6.5" cy="6.5" r="6.5" transform="translate(1676 137)" fill="#9890e3"/><circle cx="6.5" cy="6.5" r="6.5" transform="translate(1709 137)" fill="#9890e3"/><circle cx="6.5" cy="6.5" r="6.5" transform="translate(1742 137)" fill="#9890e3"/><circle cx="6.5" cy="6.5" r="6.5" transform="translate(1544 170)" fill="#9890e3"/><circle cx="6.5" cy="6.5" r="6.5" transform="translate(1577 170)" fill="#9890e3"/><circle cx="6.5" cy="6.5" r="6.5" transform="translate(1610 170)" fill="#9890e3"/><circle cx="6.5" cy="6.5" r="6.5" transform="translate(1643 170)" fill="#9890e3"/><circle cx="6.5" cy="6.5" r="6.5" transform="translate(1676 170)" fill="#9890e3"/><circle cx="6.5" cy="6.5" r="6.5" transform="translate(1709 170)" fill="#9890e3"/><circle cx="6.5" cy="6.5" r="6.5" transform="translate(1742 170)" fill="#9890e3"/><circle cx="6.5" cy="6.5" r="6.5" transform="translate(1544 203)" fill="#9890e3"/><circle cx="6.5" cy="6.5" r="6.5" transform="translate(1577 203)" fill="#9890e3"/><circle cx="6.5" cy="6.5" r="6.5" transform="translate(1610 203)" fill="#9890e3"/><circle cx="6.5" cy="6.5" r="6.5" transform="translate(1643 203)" fill="#9890e3"/><circle cx="6.5" cy="6.5" r="6.5" transform="translate(1676 203)" fill="#9890e3"/><circle cx="6.5" cy="6.5" r="6.5" transform="translate(1709 203)" fill="#9890e3"/><circle cx="6.5" cy="6.5" r="6.5" transform="translate(1742 203)" fill="#9890e3"/><circle cx="6.5" cy="6.5" r="6.5" transform="translate(1544 236)" fill="#9890e3"/><circle cx="6.5" cy="6.5" r="6.5" transform="translate(1577 236)" fill="#9890e3"/><circle cx="6.5" cy="6.5" r="6.5" transform="translate(1610 236)" fill="#9890e3"/><circle cx="6.5" cy="6.5" r="6.5" transform="translate(1643 236)" fill="#9890e3"/><circle cx="6.5" cy="6.5" r="6.5" transform="translate(1676 236)" fill="#9890e3"/><circle cx="6.5" cy="6.5" r="6.5" transform="translate(1709 236)" fill="#9890e3"/><circle cx="6.5" cy="6.5" r="6.5" transform="translate(1742 236)" fill="#9890e3"/><circle cx="6.5" cy="6.5" r="6.5" transform="translate(1544 269)" fill="#9890e3"/><circle cx="6.5" cy="6.5" r="6.5" transform="translate(1577 269)" fill="#9890e3"/><circle cx="6.5" cy="6.5" r="6.5" transform="translate(1610 269)" fill="#9890e3"/><circle cx="6.5" cy="6.5" r="6.5" transform="translate(1643 269)" fill="#9890e3"/><circle cx="6.5" cy="6.5" r="6.5" transform="translate(1676 269)" fill="#9890e3"/><circle cx="6.5" cy="6.5" r="6.5" transform="translate(1709 269)" fill="#9890e3"/><circle cx="6.5" cy="6.5" r="6.5" transform="translate(1742 269)" fill="#9890e3"/><circle cx="6.5" cy="6.5" r="6.5" transform="translate(1544 302)" fill="#9890e3"/><circle cx="6.5" cy="6.5" r="6.5" transform="translate(1577 302)" fill="#9890e3"/><circle cx="6.5" cy="6.5" r="6.5" transform="translate(1610 302)" fill="#9890e3"/><circle cx="6.5" cy="6.5" r="6.5" transform="translate(1643 302)" fill="#9890e3"/><circle cx="6.5" cy="6.5" r="6.5" transform="translate(1676 302)" fill="#9890e3"/><circle cx="6.5" cy="6.5" r="6.5" transform="translate(1709 302)" fill="#9890e3"/><circle cx="6.5" cy="6.5" r="6.5" transform="translate(1742 302)" fill="#9890e3"/><circle cx="6.5" cy="6.5" r="6.5" transform="translate(1544 335)" fill="#9890e3"/><circle cx="6.5" cy="6.5" r="6.5" transform="translate(1577 335)" fill="#9890e3"/><circle cx="6.5" cy="6.5" r="6.5" transform="translate(1610 335)" fill="#9890e3"/><circle cx="6.5" cy="6.5" r="6.5" transform="translate(1643 335)" fill="#9890e3"/><circle cx="6.5" cy="6.5" r="6.5" transform="translate(1676 335)" fill="#9890e3"/><circle cx="6.5" cy="6.5" r="6.5" transform="translate(1709 335)" fill="#9890e3"/><circle cx="6.5" cy="6.5" r="6.5" transform="translate(1742 335)" fill="#9890e3"/><circle cx="6.5" cy="6.5" r="6.5" transform="translate(1544 368)" fill="#9890e3"/><circle cx="6.5" cy="6.5" r="6.5" transform="translate(1577 368)" fill="#9890e3"/><circle cx="6.5" cy="6.5" r="6.5" transform="translate(1610 368)" fill="#9890e3"/><circle cx="6.5" cy="6.5" r="6.5" transform="translate(1643 368)" fill="#9890e3"/><circle cx="6.5" cy="6.5" r="6.5" transform="translate(1676 368)" fill="#9890e3"/><circle cx="6.5" cy="6.5" r="6.5" transform="translate(1709 368)" fill="#9890e3"/><circle cx="6.5" cy="6.5" r="6.5" transform="translate(1742 368)" fill="#9890e3"/><circle cx="6.5" cy="6.5" r="6.5" transform="translate(1544 -28)" fill="#9890e3"/><circle cx="6.5" cy="6.5" r="6.5" transform="translate(1577 -28)" fill="#9890e3"/><circle cx="6.5" cy="6.5" r="6.5" transform="translate(1610 -28)" fill="#9890e3"/><circle cx="6.5" cy="6.5" r="6.5" transform="translate(1643 -28)" fill="#9890e3"/><circle cx="6.5" cy="6.5" r="6.5" transform="translate(1676 -28)" fill="#9890e3"/><circle cx="6.5" cy="6.5" r="6.5" transform="translate(1709 -28)" fill="#9890e3"/><circle cx="6.5" cy="6.5" r="6.5" transform="translate(1742 -28)" fill="#9890e3"/></g></svg>