<svg xmlns="http://www.w3.org/2000/svg" width="219.763" height="144.64" viewBox="0 0 219.763 144.64"><path d="M81.6-186.243v11.493q-24.667,12.894-35.319,26.91T35.626-117.287q0,9.811,2.8,13.455,2.523,3.924,6.167,3.924a32.47,32.47,0,0,0,9.811-2.1,35.074,35.074,0,0,1,11.212-2.1,27.444,27.444,0,0,1,20.042,8.549A28.409,28.409,0,0,1,94.211-74.68q0,13.455-10.371,23.126T58.051-41.883q-18.781,0-33.917-16.258T9-98.226Q9-126.256,27.637-150.5T81.6-186.243ZM215.3-185.4v10.652q-28.311,16.258-37.281,29.152t-8.97,30.273q0,7.849,3.083,11.773t6.447,3.924q3.083,0,9.25-2.242a35.881,35.881,0,0,1,12.334-2.242,27.9,27.9,0,0,1,20.042,8.269,27.168,27.168,0,0,1,8.549,20.322q0,13.735-10.792,23.826T191.478-41.6q-18.5,0-33.357-15.978t-14.856-39.8q0-29.433,18.781-53.679T215.3-185.4Z" transform="translate(228.759 -41.603) rotate(180)" fill="#fff"/></svg>