<svg xmlns="http://www.w3.org/2000/svg" xmlns:xlink="http://www.w3.org/1999/xlink" width="20" height="20" viewBox="0 0 20 20"><defs><clipPath id="a"><rect width="20" height="20" transform="translate(1106 1905)" fill="#685ec8"/></clipPath></defs><g transform="translate(-1106 -1905)" clip-path="url(#a)"><path d="M51.241,54.429H44.674l-2-5.955a.723.723,0,0,0-1.357,0l-2,5.955H32.714a.716.716,0,0,0-.714.714.525.525,0,0,0,.013.121.686.686,0,0,0,.3.5l5.4,3.8-2.071,6.022a.716.716,0,0,0,.246.8.691.691,0,0,0,.4.174.875.875,0,0,0,.446-.161L42,62.656l5.268,3.754a.837.837,0,0,0,.446.161.641.641,0,0,0,.4-.174.708.708,0,0,0,.246-.8l-2.071-6.022,5.353-3.839.129-.112a.683.683,0,0,0-.527-1.192Z" transform="translate(1074 1857.714)" fill="#685ec8"/></g></svg>